<svg version="1" xmlns="http://www.w3.org/2000/svg" width="893.333" height="893.333" viewBox="0 0 670.000000 670.000000" color="white"><path fill="currentColor" d="M.3 186.4c.3.8 1.1 3.2 1.6 5.3l1.1 3.9 11.1-.2c13-.1 11.7-1.2 17.8 14.4 2.3 5.6 8.8 21.8 14.6 36 12.3 29.9 11.9 29 13.3 32.2.8 1.8 52.1 127.2 70.2 171.5.7 1.6 1.6 3.9 2.1 5s2.8 6.7 5.2 12.5l4.2 10.5h18.7c11.2 0 19.1-.4 19.6-1 .6-.6 4.4-10.9 8.5-23s11.9-34.6 17.2-50c5.3-15.4 10.7-31.2 12-35 4.6-13.6 20.3-59 21.2-61.3.8-2.1 1.3-1.4 3.7 6 17.9 54.6 49.4 150.1 51.5 156.3l2.8 7.9 17.9.1c9.8 0 18.6-.1 19.5-.3 1.1-.2 3.5-5.2 6.9-14 11.6-30.4 11.5-30.3 12.8-29 .7.7 1.2 1.6 1.2 2 0 1.9 8.3 14.2 12.7 18.9 10.7 11.4 30.2 22.1 46.2 25.4.9.2 3.6.8 6.1 1.4 15.7 3.6 53 3.6 67 .1 1.9-.5 4.9-1.1 6.5-1.4 3.2-.6 12.9-4 20-7.1 5.3-2.3 16.6-9.7 21.1-13.7 6.7-6.1 7.9-7.3 12-12.3 9.2-11.1 17.9-27.2 26.2-48.1 3.9-9.9 5.5-14.4 16.3-45.9 3.1-9.4 8.1-23.8 10.9-32 2.8-8.3 5.3-15.7 5.5-16.5.2-.8 7-20.9 15-44.5 8-23.7 16.3-48 18.3-54l3.7-11H665l1.1-3.8c.5-2.1 1.3-4.5 1.6-5.3.4-1.2-4.5-1.4-34.9-1.4h-35.4l-1.5 5c-1 3.3-1.2 5-.5 5.3.6.2 6.4.3 12.9.2 6.4 0 11.7.2 11.7.6 0 .6-25.4 75.7-28.9 85.4-1.2 3.3-2.4 6.7-2.6 7.5-.2.8-4.7 14.1-10 29.5s-13.5 39.2-18.2 53c-10.7 31.5-20 51-29.2 61.5-19.9 22.6-38.7 31.3-66.5 30.5-26.7-.7-42.2-11.3-47.2-32.5-3.5-14.5.7-36.9 14.1-76 2-5.8 4.3-12.5 5-15 1.8-6 19.2-57.1 40.2-117.5 2.4-7.2 5.4-15.7 6.5-19 1.1-3.3 2.4-6.5 2.9-7.1.5-.6 5.2-1 11.9-.9l11 .1 1.1-3.9c.5-2.1 1.3-4.5 1.6-5.3.4-1.2-7.9-1.4-62.2-1.2-54.9.3-62.8.5-63.1 1.8-.1.8-.7 3-1.3 4.7-.5 1.8-.7 3.4-.3 3.4.4.1 6.1.2 12.7.3 10 .1 11.9.4 11.7 1.6-.2.8-1.9 6-3.8 11.5-2 5.5-5.3 15.2-7.6 21.5-2.2 6.3-5.2 15.1-6.8 19.5-41.8 118.7-43.3 123.5-44.6 139-.7 8.7-.7 8.7-1.9 4.9-5.6-17.4-10.2-31.6-15.3-47.4-3.3-10.2-10.2-31.3-15.2-47s-10-31-11-34-6-18.3-11-34-9.5-29.5-10.1-30.8c-1.9-4.7-1.6-4.8 11.6-4.7 6.9 0 12.5-.3 12.5-.8 0-.4-.5-2.8-1.1-5.3l-1.1-4.4h-62.9c-46.2 0-62.9.3-62.9 1.1 0 1.9 2.3 8.9 2.9 9 .3.1 5.5.2 11.6.3l10.9.1 3.7 11c2 6.1 7.7 23.1 12.5 38l8.9 27-3.1 9c-1.7 4.9-6.3 18.4-10.3 30-3.9 11.5-9.2 27.1-11.7 34.5-2.5 7.4-4.8 14.2-5.1 15-2.3 6.3-12.3 35.6-12.3 36-.2 1.5-4.2-7.8-14.9-34.6-6.5-16.5-18.1-45.2-25.6-63.9-7.6-18.7-14.5-36-15.5-38.5-.9-2.5-6.8-17.1-13-32.5-6.2-15.4-11.5-28.7-11.7-29.6-.4-1.4 1.1-1.5 12.1-1.5 6.9.1 12.6-.2 12.6-.7 0-.4-.5-2.8-1.1-5.3l-1.1-4.4h-64c-55.3 0-63.9.2-63.5 1.4z" /></svg>